<?xml version="1.0" encoding="utf-8"?>
<!-- Generator: Adobe Illustrator 27.2.0, SVG Export Plug-In . SVG Version: 6.00 Build 0)  -->
<svg version="1.1" id="Layer_1" xmlns="http://www.w3.org/2000/svg" xmlns:xlink="http://www.w3.org/1999/xlink" x="0px" y="0px"
	 viewBox="0 0 380 310" style="enable-background:new 0 0 380 310;" xml:space="preserve">
<style type="text/css">
	.st0{clip-path:url(#SVGID_00000089550059362899765570000016985440702781746830_);}
	.st1{clip-path:url(#SVGID_00000179638880116732527310000013360807415721019309_);}
	.st2{clip-path:url(#SVGID_00000176012541230107071640000014877689503545360797_);fill:#CD132E;}
	.st3{filter:url(#Adobe_OpacityMaskFilter);}
	.st4{clip-path:url(#SVGID_00000176012541230107071640000014877689503545360797_);}
	.st5{clip-path:url(#SVGID_00000035520061082923120810000000000340344656839345_);fill:#1D1D1B;}
	.st6{enable-background:new    ;}
	.st7{clip-path:url(#SVGID_00000035520061082923120810000000000340344656839345_);}
	.st8{clip-path:url(#SVGID_00000049940108928588200730000016075571861749089452_);fill:#1D1D1B;}
	
		.st9{clip-path:url(#SVGID_00000035520061082923120810000000000340344656839345_);fill:url(#SVGID_00000030445092914807156310000013584590088260237754_);}
	
		.st10{opacity:0.5;clip-path:url(#SVGID_00000176012541230107071640000014877689503545360797_);mask:url(#SVGID_00000159465671962463066760000006156973694128268728_);}
	.st11{clip-path:url(#SVGID_00000148638172363430045620000010315064170154673324_);}
	.st12{clip-path:url(#SVGID_00000126319051502482091030000001668384266535569053_);fill:#5F636A;}
	.st13{filter:url(#Adobe_OpacityMaskFilter_00000073688193418668166130000012796695415460503427_);}
	.st14{clip-path:url(#SVGID_00000038404412602843939360000016065589220945079474_);fill:#1D1D1B;}
	.st15{clip-path:url(#SVGID_00000038404412602843939360000016065589220945079474_);}
	.st16{clip-path:url(#SVGID_00000149343226302122649160000001085448506308628662_);fill:#1D1D1B;}
	
		.st17{clip-path:url(#SVGID_00000038404412602843939360000016065589220945079474_);fill:url(#SVGID_00000079447761332258983390000006676602112040648341_);}
	
		.st18{opacity:0.5;clip-path:url(#SVGID_00000176012541230107071640000014877689503545360797_);mask:url(#SVGID_00000005980557778952687280000006208307962247215785_);}
	.st19{clip-path:url(#SVGID_00000109023930446693563960000018014650812793019534_);}
	.st20{clip-path:url(#SVGID_00000111155966243881430790000004252592092167739579_);fill:#5F636A;}
	.st21{clip-path:url(#SVGID_00000176012541230107071640000014877689503545360797_);fill:#5F636A;}
	.st22{opacity:0.4;clip-path:url(#SVGID_00000176012541230107071640000014877689503545360797_);}
	.st23{clip-path:url(#SVGID_00000139261519928813033690000015947709850044961175_);}
	
		.st24{clip-path:url(#SVGID_00000040556014487537920420000016049006244675846815_);fill:url(#SVGID_00000180354763836821255790000008212817941884319666_);}
	.st25{clip-path:url(#SVGID_00000160168312898501274660000005881327211533426088_);}
	
		.st26{clip-path:url(#SVGID_00000134935220748381279920000015386991950064773820_);fill:url(#SVGID_00000035530578844538836280000007774564350074315450_);}
	.st27{opacity:0.25;clip-path:url(#SVGID_00000000181219312345545850000010991942757276803209_);}
	.st28{clip-path:url(#SVGID_00000031190840399439179440000007937665877313417891_);}
	
		.st29{clip-path:url(#SVGID_00000176758052690745932380000018429009549221645225_);fill:url(#SVGID_00000021798051409302389440000005980095114452723083_);}
	
		.st30{clip-path:url(#SVGID_00000022523835070494269000000018234836578705243324_);fill:url(#SVGID_00000061464892005904062770000001556843006638025110_);}
	
		.st31{clip-path:url(#SVGID_00000088813905880223498040000014009503097839885503_);fill:url(#SVGID_00000026160179866309716970000008626264812764781241_);}
	
		.st32{clip-path:url(#SVGID_00000075147442230772001140000003927309066476087231_);fill:url(#SVGID_00000075146066051556880220000008333553750025790106_);}
	
		.st33{clip-path:url(#SVGID_00000000915933099807271930000015003748460307325572_);fill:url(#SVGID_00000072272801652291074490000009652647330361457565_);}
	.st34{clip-path:url(#SVGID_00000000181219312345545850000010991942757276803209_);}
	.st35{clip-path:url(#SVGID_00000127735501432483175950000011186227163117988775_);}
</style>
<g>
	<g>
		<defs>
			<rect id="SVGID_1_" x="13.22" y="18.47" width="353.57" height="273.07"/>
		</defs>
		<clipPath id="SVGID_00000160878659226952677120000003093394158433298346_">
			<use xlink:href="#SVGID_1_"  style="overflow:visible;"/>
		</clipPath>
		<g style="clip-path:url(#SVGID_00000160878659226952677120000003093394158433298346_);">
			<defs>
				<rect id="SVGID_00000032626219641849707840000008560498100950034603_" x="13.22" y="18.47" width="353.57" height="273.07"/>
			</defs>
			<clipPath id="SVGID_00000008853638135682924850000007246961390004935327_">
				<use xlink:href="#SVGID_00000032626219641849707840000008560498100950034603_"  style="overflow:visible;"/>
			</clipPath>
			<g style="clip-path:url(#SVGID_00000008853638135682924850000007246961390004935327_);">
				<defs>
					<rect id="SVGID_00000067939008311655430090000011749597307838181248_" x="13.22" y="18.47" width="353.57" height="273.07"/>
				</defs>
				<clipPath id="SVGID_00000178884035827522145730000002571713539194673316_">
					<use xlink:href="#SVGID_00000067939008311655430090000011749597307838181248_"  style="overflow:visible;"/>
				</clipPath>
				<path style="clip-path:url(#SVGID_00000178884035827522145730000002571713539194673316_);fill:#CD132E;" d="M311.09,78.69
					c-0.01-0.03-0.02-0.07-0.04-0.1l-0.29-0.54c-0.35-0.71-0.69-1.41-1.07-2.11l-0.05,0.03l-31.02-57.4l-29.04,0l38.64,71.97
					c1.5,3.41,2.34,7.18,2.34,11.15c0,15.47-12.55,28.01-28.02,28.01c-10.22,0-19.12-5.48-24.01-13.66L220.13,81.4
					c-24.81-46.19-30.33-62.91-56.56-62.91l-1.89-0.02l-0.21,0.01l-0.21-0.01l-1.9,0.02c-22.55,0-31.76,16.72-56.56,62.91
					l-39.36,74.02l29.05,0c0,0,52.66-99.37,58.86-105.85c2.94-3.48,6.39-5.52,10.11-5.52c3.72,0,7.18,2.05,10.12,5.53
					c5.85,6.13,40.34,71.03,44.17,78.25l-0.05,0.02c9.19,16.42,26.7,27.55,46.84,27.55c29.66,0,53.71-24.05,53.71-53.71
					C316.26,93.46,314.4,85.67,311.09,78.69"/>
				<defs>
					<filter id="Adobe_OpacityMaskFilter" filterUnits="userSpaceOnUse" x="63.44" y="35.68" width="108.16" height="119.74">
						<feColorMatrix  type="matrix" values="1 0 0 0 0  0 1 0 0 0  0 0 1 0 0  0 0 0 1 0"/>
					</filter>
				</defs>
				
					<mask maskUnits="userSpaceOnUse" x="63.44" y="35.68" width="108.16" height="119.74" id="SVGID_00000059272905429556424220000004416312350095360665_">
					<g class="st3">
						<g>
							<defs>
								
									<rect id="SVGID_00000000222998171872687970000017152563186288607674_" x="63.44" y="35.68" width="108.16" height="119.74"/>
							</defs>
							
								<clipPath id="SVGID_00000091003260261185481700000009776103136972837266_" style="clip-path:url(#SVGID_00000178884035827522145730000002571713539194673316_);">
								<use xlink:href="#SVGID_00000000222998171872687970000017152563186288607674_"  style="overflow:visible;"/>
							</clipPath>
							
								<rect x="63.44" y="28.21" style="clip-path:url(#SVGID_00000091003260261185481700000009776103136972837266_);fill:#1D1D1B;" width="108.16" height="127.22"/>
							<g class="st6">
								<g>
									<defs>
										
											<rect id="SVGID_00000154404195319088960930000000940817543430829737_" x="63.44" y="35.68" width="108.16" height="119.74"/>
									</defs>
									
										<clipPath id="SVGID_00000058590313482533778090000004444446264562541982_" style="clip-path:url(#SVGID_00000091003260261185481700000009776103136972837266_);">
										<use xlink:href="#SVGID_00000154404195319088960930000000940817543430829737_"  style="overflow:visible;"/>
									</clipPath>
									
										<rect x="63.44" y="28.21" style="clip-path:url(#SVGID_00000058590313482533778090000004444446264562541982_);fill:#1D1D1B;" width="108.16" height="127.22"/>
								</g>
								
									<linearGradient id="SVGID_00000140736092146230272370000017629029499683635349_" gradientUnits="userSpaceOnUse" x1="-175.3525" y1="831.985" x2="-172.8274" y2="831.985" gradientTransform="matrix(0 -52.7305 52.7305 0 -43753.4414 -9085.208)">
									<stop  offset="0" style="stop-color:#1D1D1B"/>
									<stop  offset="1" style="stop-color:#FFFFFF"/>
								</linearGradient>
								
									<rect x="63.44" y="35.68" style="clip-path:url(#SVGID_00000091003260261185481700000009776103136972837266_);fill:url(#SVGID_00000140736092146230272370000017629029499683635349_);" width="108.16" height="119.74"/>
							</g>
						</g>
					</g>
				</mask>
				
					<g style="opacity:0.5;clip-path:url(#SVGID_00000178884035827522145730000002571713539194673316_);mask:url(#SVGID_00000059272905429556424220000004416312350095360665_);">
					<g>
						<defs>
							<rect id="SVGID_00000039131411859514022440000012347206912289489071_" x="63.44" y="35.68" width="108.16" height="119.74"/>
						</defs>
						<clipPath id="SVGID_00000132785680181306732330000010937674692167760521_">
							<use xlink:href="#SVGID_00000039131411859514022440000012347206912289489071_"  style="overflow:visible;"/>
						</clipPath>
						<g style="clip-path:url(#SVGID_00000132785680181306732330000010937674692167760521_);">
							<defs>
								
									<rect id="SVGID_00000078747237873816776000000002470610431487500173_" x="63.44" y="35.68" width="108.16" height="119.74"/>
							</defs>
							<clipPath id="SVGID_00000094586690975810099750000005638982807435732121_">
								<use xlink:href="#SVGID_00000078747237873816776000000002470610431487500173_"  style="overflow:visible;"/>
							</clipPath>
							<path style="clip-path:url(#SVGID_00000094586690975810099750000005638982807435732121_);fill:#5F636A;" d="M171.6,49.59
								L171.6,49.59c-13.38-21.38-42.24-14.97-50.09-1.71c-5.38,9.09-11.13,19.42-18.71,33.53l-39.36,74.02l29.05,0
								c0,0,52.66-99.36,58.86-105.85c2.94-3.48,6.4-5.52,10.11-5.52c3.72,0,7.18,2.05,10.12,5.53
								C171.59,49.58,171.59,49.58,171.6,49.59"/>
						</g>
					</g>
				</g>
				<defs>
					
						<filter id="Adobe_OpacityMaskFilter_00000041288452998890372600000006040621172779471507_" filterUnits="userSpaceOnUse" x="239.42" y="18.58" width="76.84" height="121.4">
						<feColorMatrix  type="matrix" values="1 0 0 0 0  0 1 0 0 0  0 0 1 0 0  0 0 0 1 0"/>
					</filter>
				</defs>
				
					<mask maskUnits="userSpaceOnUse" x="239.42" y="18.58" width="76.84" height="121.4" id="SVGID_00000180336575004969242910000009927565663814222485_">
					<g style="filter:url(#Adobe_OpacityMaskFilter_00000041288452998890372600000006040621172779471507_);">
						<g>
							<defs>
								<rect id="SVGID_00000089563223671889375480000013659994762750156978_" x="239.42" y="18.58" width="76.84" height="121.4"/>
							</defs>
							
								<clipPath id="SVGID_00000003805470323681426240000015777283815706332565_" style="clip-path:url(#SVGID_00000178884035827522145730000002571713539194673316_);">
								<use xlink:href="#SVGID_00000089563223671889375480000013659994762750156978_"  style="overflow:visible;"/>
							</clipPath>
							
								<rect x="239.42" y="18.58" style="clip-path:url(#SVGID_00000003805470323681426240000015777283815706332565_);fill:#1D1D1B;" width="76.84" height="123.98"/>
							<g class="st6">
								<g>
									<defs>
										
											<rect id="SVGID_00000032644000812571821550000012069779418794784434_" x="239.42" y="18.58" width="76.84" height="121.4"/>
									</defs>
									
										<clipPath id="SVGID_00000030457900436924990650000006534655779025069219_" style="clip-path:url(#SVGID_00000003805470323681426240000015777283815706332565_);">
										<use xlink:href="#SVGID_00000032644000812571821550000012069779418794784434_"  style="overflow:visible;"/>
									</clipPath>
									
										<rect x="239.42" y="18.58" style="clip-path:url(#SVGID_00000030457900436924990650000006534655779025069219_);fill:#1D1D1B;" width="76.84" height="123.98"/>
								</g>
								
									<linearGradient id="SVGID_00000022557158092004273200000010381895723510659758_" gradientUnits="userSpaceOnUse" x1="-175.1636" y1="833.8983" x2="-172.6385" y2="833.8983" gradientTransform="matrix(0 -52.7305 52.7305 0 -43694.0039 -9091.7393)">
									<stop  offset="0" style="stop-color:#FFFFFF"/>
									<stop  offset="1" style="stop-color:#1D1D1B"/>
								</linearGradient>
								
									<rect x="239.42" y="18.58" style="clip-path:url(#SVGID_00000003805470323681426240000015777283815706332565_);fill:url(#SVGID_00000022557158092004273200000010381895723510659758_);" width="76.84" height="121.39"/>
							</g>
						</g>
					</g>
				</mask>
				
					<g style="opacity:0.5;clip-path:url(#SVGID_00000178884035827522145730000002571713539194673316_);mask:url(#SVGID_00000180336575004969242910000009927565663814222485_);">
					<g>
						<defs>
							<rect id="SVGID_00000010997084108201571230000001257849447913854614_" x="239.42" y="18.58" width="76.84" height="121.4"/>
						</defs>
						<clipPath id="SVGID_00000079475593229630463890000006116536519866351525_">
							<use xlink:href="#SVGID_00000010997084108201571230000001257849447913854614_"  style="overflow:visible;"/>
						</clipPath>
						<g style="clip-path:url(#SVGID_00000079475593229630463890000006116536519866351525_);">
							<defs>
								<rect id="SVGID_00000045615481973877927500000015607929806587090868_" x="239.42" y="18.58" width="76.84" height="121.4"/>
							</defs>
							<clipPath id="SVGID_00000014616084821439066540000007150826373708116654_">
								<use xlink:href="#SVGID_00000045615481973877927500000015607929806587090868_"  style="overflow:visible;"/>
							</clipPath>
							<path style="clip-path:url(#SVGID_00000014616084821439066540000007150826373708116654_);fill:#5F636A;" d="M311.09,78.69
								c-0.01-0.03-0.02-0.07-0.04-0.1l-0.29-0.54c-0.35-0.71-0.69-1.41-1.07-2.11l-0.05,0.03l-31.02-57.4l-29.04,0l38.64,71.97
								c1.5,3.41,2.34,7.18,2.34,11.15c0,15.47-12.55,28.01-28.02,28.01c-9.64,0-18.06-4.91-23.09-12.33l-0.04,0.04
								c6.02,9,15.7,19.52,28.94,21.78c19.68,3.37,33.61-4.82,41.59-12.24c4.02-7.53,6.32-16.12,6.32-25.26
								C316.26,93.46,314.4,85.67,311.09,78.69"/>
						</g>
					</g>
				</g>
				<path style="clip-path:url(#SVGID_00000178884035827522145730000002571713539194673316_);fill:#5F636A;" d="M133.35,282.01
					v-0.05c0.57-0.07,1.08-0.24,1.55-0.49c0.46-0.25,0.85-0.57,1.16-0.92c0.32-0.36,0.56-0.77,0.72-1.23
					c0.17-0.45,0.26-0.92,0.26-1.42c0-1.21-0.22-2.16-0.69-2.8c-0.47-0.67-1.05-1.16-1.77-1.47c-0.71-0.31-1.49-0.51-2.34-0.57
					c-0.85-0.07-1.66-0.11-2.42-0.11h-8.41v1.82h2.87v14.95h-2.87v1.81h8.41c1.03,0,2.01-0.06,2.95-0.17
					c0.93-0.12,1.76-0.35,2.48-0.72c0.72-0.37,1.29-0.91,1.71-1.6c0.43-0.69,0.64-1.6,0.64-2.74c0-1.38-0.38-2.46-1.14-3.19
					C135.72,282.36,134.67,282.01,133.35,282.01 M126.78,274.77h3.04c0.48,0,0.98,0.02,1.5,0.05c0.53,0.04,1.03,0.16,1.48,0.36
					c0.46,0.2,0.83,0.51,1.12,0.94c0.29,0.42,0.44,1.02,0.44,1.78c0,0.73-0.13,1.33-0.39,1.77c-0.26,0.43-0.6,0.78-1.02,1.01
					c-0.42,0.23-0.92,0.39-1.48,0.47c-0.56,0.08-1.13,0.12-1.72,0.12h-2.98V274.77z M134.51,288.1c-0.29,0.45-0.66,0.8-1.14,1.05
					c-0.47,0.23-1.02,0.39-1.63,0.46c-0.62,0.07-1.25,0.12-1.92,0.12h-3.04v-6.66l3.04,0c0.68,0,1.33,0.03,1.96,0.11
					c0.63,0.08,1.17,0.23,1.63,0.46c0.46,0.22,0.83,0.55,1.11,0.98c0.27,0.42,0.42,0.98,0.42,1.69
					C134.94,287.05,134.79,287.65,134.51,288.1"/>
				<path style="clip-path:url(#SVGID_00000178884035827522145730000002571713539194673316_);fill:#5F636A;" d="M151.63,272.95
					h-2.99l-7.13,16.77l-2.05,0v1.81h7.39v-1.72h-2.9l1.84-4.4h8.33l1.79,4.32h-2.84v1.81l7.64,0v-1.81h-2.05L151.63,272.95z
					 M146.57,283.58l3.44-8.22l3.38,8.22H146.57z"/>
				<polygon style="clip-path:url(#SVGID_00000178884035827522145730000002571713539194673316_);fill:#5F636A;" points="
					174.79,274.77 177.63,274.77 177.63,281.26 167.92,281.26 167.92,274.77 170.75,274.77 170.75,272.95 162.57,272.95 
					162.57,274.77 165.41,274.77 165.41,289.72 162.57,289.72 162.57,291.53 170.75,291.53 170.75,289.72 167.92,289.72 
					167.92,283.07 177.63,283.07 177.63,289.72 174.79,289.72 174.79,291.53 182.98,291.53 182.98,289.72 180.13,289.72 
					180.13,274.77 182.98,274.77 182.98,272.95 174.79,272.95 				"/>
				<path style="clip-path:url(#SVGID_00000178884035827522145730000002571713539194673316_);fill:#5F636A;" d="M199.67,286.99
					c-0.21-0.53-0.38-1.04-0.51-1.52c-0.13-0.49-0.3-0.93-0.51-1.32c-0.21-0.38-0.5-0.71-0.86-0.97c-0.36-0.27-0.87-0.43-1.54-0.51
					v-0.05c1.35-0.12,2.38-0.59,3.12-1.42c0.73-0.84,1.09-1.91,1.09-3.24c0-1.19-0.21-2.12-0.67-2.8c-0.45-0.67-1.05-1.17-1.79-1.49
					c-0.72-0.32-1.55-0.53-2.47-0.6c-0.92-0.08-1.86-0.11-2.8-0.11h-7.9v1.82h2.84v14.95h-2.84v1.81h8.19v-1.81h-2.84v-6.28h2.21
					c0.87,0,1.57,0.06,2.09,0.15c0.51,0.1,0.94,0.3,1.26,0.58c0.33,0.29,0.6,0.69,0.8,1.21c0.21,0.52,0.43,1.2,0.68,2.03l1.25,4.11
					h4.15v-1.81l-2.16,0L199.67,286.99z M194.31,281.57c-0.67,0.04-1.35,0.05-2.05,0.05h-2.07v-6.85h2.07
					c0.63,0,1.26,0.02,1.91,0.05c0.66,0.04,1.26,0.16,1.8,0.36c0.55,0.2,0.98,0.51,1.33,0.94c0.34,0.42,0.51,1.04,0.51,1.83
					c0,0.91-0.16,1.62-0.47,2.13c-0.31,0.5-0.73,0.85-1.25,1.09C195.56,281.39,194.96,281.53,194.31,281.57"/>
				<path style="clip-path:url(#SVGID_00000178884035827522145730000002571713539194673316_);fill:#5F636A;" d="M216.61,272.95
					h-2.98l-7.14,16.77h-2.04v1.81h7.39v-1.72h-2.9l1.85-4.4l8.33,0l1.79,4.32h-2.84v1.81l7.64,0v-1.81h-2.04L216.61,272.95z
					 M211.55,283.58l3.43-8.22l3.38,8.22H211.55z"/>
				<polygon style="clip-path:url(#SVGID_00000178884035827522145730000002571713539194673316_);fill:#5F636A;" points="
					227.6,274.77 230.44,274.77 230.44,289.72 227.6,289.72 227.6,291.53 235.79,291.53 235.79,289.72 232.95,289.72 232.95,274.77 
					235.79,274.77 235.79,272.95 227.6,272.95 				"/>
				<polygon style="clip-path:url(#SVGID_00000178884035827522145730000002571713539194673316_);fill:#5F636A;" points="
					250.17,274.77 253,274.77 253,288.64 252.95,288.64 244.34,272.95 237.67,272.95 237.67,274.77 240.61,274.77 240.61,289.72 
					237.67,289.72 237.67,291.53 245.79,291.53 245.79,289.72 242.95,289.72 242.95,275.28 243,275.28 251.98,291.53 255.33,291.53 
					255.33,274.77 258.29,274.77 258.29,272.95 250.17,272.95 				"/>
				<path style="clip-path:url(#SVGID_00000178884035827522145730000002571713539194673316_);fill:#5F636A;" d="M27.26,185.49
					c1.48,0,2.73-1.25,2.73-2.74c0-1.45-1.25-2.68-2.73-2.68c-1.48,0-2.68,1.2-2.68,2.68C24.58,184.25,25.78,185.49,27.26,185.49"/>
				<path style="clip-path:url(#SVGID_00000178884035827522145730000002571713539194673316_);fill:#5F636A;" d="M20.97,185.49
					c1.5,0,2.78-1.25,2.78-2.74c0-1.47-1.24-2.68-2.78-2.68c-1.48,0-2.73,1.22-2.73,2.68C18.24,184.23,19.5,185.49,20.97,185.49"/>
				<path style="clip-path:url(#SVGID_00000178884035827522145730000002571713539194673316_);fill:#5F636A;" d="M49.88,216.85
					c0,1.51,1.2,2.73,2.68,2.73c1.48,0,2.73-1.25,2.73-2.73c0-1.45-1.25-2.68-2.73-2.68C51.06,214.17,49.88,215.35,49.88,216.85"/>
				<path style="clip-path:url(#SVGID_00000178884035827522145730000002571713539194673316_);fill:#5F636A;" d="M56.12,216.85
					c0,1.48,1.23,2.73,2.68,2.73c1.48,0,2.73-1.25,2.73-2.73c0-1.45-1.25-2.68-2.73-2.68C57.33,214.17,56.12,215.37,56.12,216.85"/>
				<path style="clip-path:url(#SVGID_00000178884035827522145730000002571713539194673316_);fill:#5F636A;" d="M22.46,210.64
					c3.33,0,5.63-0.98,6.84-2.92c1.15,1.94,3.48,2.92,6.95,2.92l12.83,0c2.76,0,4.98-0.79,6.61-2.35c1.62,1.56,3.8,2.35,6.47,2.35
					l16.8,0c2.79,0,4.99-0.8,6.56-2.39c1.66,1.59,3.83,2.39,6.47,2.39l49.46,0v-8c0-4.57-0.63-8.04-1.86-10.31
					c-1.86-3.29-5.29-4.95-10.19-4.95h-5.69l-5.87,4.54h11.01c3.22,0,5.27,0.97,6.29,2.95c0.77,1.46,1.17,4.14,1.17,7.77v3.47
					l-3.3,0c0.65-1.09,0.98-2.66,0.98-4.68c0-2.02-0.46-3.69-1.36-4.97c-1.13-1.72-2.83-2.56-5.19-2.56c-2.3,0-4.06,0.86-5.23,2.55
					c-0.9,1.29-1.36,2.96-1.36,4.97c0,2.33,0.29,3.86,0.9,4.68l-29.48,0c-2.87,0-4.25-1.38-4.25-4.21v-22.04l-5.05,1.59v20.21
					c0,2.99-1.41,4.45-4.31,4.45l-15.15,0v0.09h-1.08c-2.9,0-4.3-1.41-4.3-4.3l0-13l-5,1.49v11.37c0,2.99-1.42,4.44-4.34,4.44
					l-12.31,0c-2.86,0-4.25-1.45-4.25-4.44v-12.75l-9.76,0c-6.11,0-9.2,3.58-9.2,10.65C13.26,206.95,16.35,210.64,22.46,210.64
					 M27.18,199.66c0,2.18-0.31,3.85-0.9,4.84c-0.62,1.13-1.81,1.71-3.54,1.71c-1.73,0-2.92-0.58-3.55-1.72
					c-0.59-0.98-0.9-2.65-0.9-4.83c0-2.18,0.31-3.83,0.9-4.78c0.63-1.1,1.82-1.66,3.55-1.66h4.44V199.66z M127.44,197.69
					c1.64,0,2.44,1.22,2.44,3.74c0,3.16-0.82,4.77-2.44,4.77c-1.61,0-2.43-1.61-2.43-4.77C125,198.91,125.8,197.69,127.44,197.69"/>
				<path style="clip-path:url(#SVGID_00000178884035827522145730000002571713539194673316_);fill:#5F636A;" d="M157.22,177.51
					h-3.68v-0.62c0-1.33,0.58-1.33,0.81-1.33c0.41,0,0.74,0.19,1.01,0.57l0.24,0.34l1.45-1.85l-0.19-0.19
					c-0.72-0.72-1.49-1.07-2.36-1.07c-2.16,0-3.3,1.22-3.3,3.53v0.62h-1.16l-1.36,2.2h8.54V177.51z"/>
				<path style="clip-path:url(#SVGID_00000178884035827522145730000002571713539194673316_);fill:#5F636A;" d="M164.91,208.22
					c1.64-1.59,2.47-3.66,2.47-6.14v-22.54l-4.99,1.48v20.73c0,2.93-1.41,4.35-4.3,4.35h-1.46v-24.33l-5.04,1.49v22.84H147
					l-2.38,4.53l13.74,0C161.05,210.64,163.25,209.83,164.91,208.22"/>
				<polygon style="clip-path:url(#SVGID_00000178884035827522145730000002571713539194673316_);fill:#5F636A;" points="
					175.8,179.86 170.76,181.45 170.76,210.64 175.8,210.64 				"/>
				<path style="clip-path:url(#SVGID_00000178884035827522145730000002571713539194673316_);fill:#5F636A;" d="M200.73,185.49
					c1.48,0,2.73-1.25,2.73-2.74c0-1.45-1.25-2.68-2.73-2.68c-1.48,0-2.69,1.2-2.69,2.68C198.04,184.23,199.28,185.49,200.73,185.49
					"/>
				<path style="clip-path:url(#SVGID_00000178884035827522145730000002571713539194673316_);fill:#5F636A;" d="M194.45,185.49
					c1.5,0,2.78-1.25,2.78-2.74c0-1.47-1.24-2.68-2.78-2.68c-1.48,0-2.73,1.22-2.73,2.68C191.71,184.23,192.96,185.49,194.45,185.49
					"/>
				<path style="clip-path:url(#SVGID_00000178884035827522145730000002571713539194673316_);fill:#5F636A;" d="M195.94,210.64
					c3.32,0,5.62-0.98,6.84-2.92c1.15,1.94,3.48,2.92,6.94,2.92l47.6,0c2.99,0,5.3-0.78,6.85-2.34c1.67,1.56,3.84,2.34,6.46,2.34
					c3.26,0,5.73-1.11,7.33-3.3c1.31-1.8,1.97-4.15,1.97-6.98c0-2.84-0.66-5.22-1.97-7.08c-1.58-2.16-4.05-3.25-7.33-3.25
					c-3.31,0-5.79,1.09-7.38,3.25c-1.3,1.84-1.96,4.22-1.96,7.08v1.49c0,2.93-1.39,4.35-4.25,4.35h-0.39v-0.09l-27.41,0v-8.41
					c0-2.56,1.71-4.35,4.16-4.35c1.36,0,2.53,0.62,3.59,1.89l0.21,0.24l3.74-3.41l-0.23-0.23c-1.95-1.89-4.22-2.84-6.78-2.84
					c-3.01,0-5.42,0.91-7.17,2.71c-1.69,1.79-2.54,4.06-2.54,6.73v7.66l-5.31,0v0.09l-8.93,0c-2.86,0-4.25-1.45-4.25-4.44v-12.75
					l-9.76,0c-6.11,0-9.21,3.58-9.21,10.65C186.73,206.95,189.83,210.64,195.94,210.64 M200.66,199.66c0,2.17-0.31,3.84-0.89,4.84
					c-0.63,1.13-1.82,1.71-3.55,1.71c-1.73,0-2.92-0.58-3.55-1.72c-0.59-0.98-0.9-2.65-0.9-4.83c0-2.18,0.31-3.83,0.9-4.78
					c0.63-1.1,1.82-1.66,3.55-1.66h4.44V199.66z M270.63,206.24c-2.9,0-4.3-1.92-4.3-5.89c0-3.99,1.4-5.93,4.3-5.93
					c2.86,0,4.25,1.94,4.25,5.93C274.89,204.32,273.49,206.24,270.63,206.24"/>
				<path style="clip-path:url(#SVGID_00000178884035827522145730000002571713539194673316_);fill:#5F636A;" d="M327.24,216.85
					c0,1.48,1.25,2.73,2.73,2.73c1.48,0,2.72-1.25,2.72-2.73c0-1.45-1.25-2.68-2.72-2.68C328.49,214.17,327.24,215.4,327.24,216.85"
					/>
				<path style="clip-path:url(#SVGID_00000178884035827522145730000002571713539194673316_);fill:#5F636A;" d="M289.77,210.64
					l59.53,0c2.72,0,4.94-0.81,6.61-2.42c1.63-1.64,2.45-3.71,2.45-6.14v-22.11l-5.04,1.47v20.22c0,2.99-1.39,4.45-4.26,4.45
					l-7.09,0v-1.28c0-4.61-0.64-8.15-1.9-10.53c-1.89-3.51-5.27-5.29-10.05-5.29c-3.76,0-7.28,1.57-10.46,4.66l-0.23,0.23l3.64,3.36
					l0.21-0.23c2.16-2.35,4.4-3.49,6.85-3.49c2.95,0,4.87,1.21,5.86,3.71c0.64,1.55,0.95,4.09,0.95,7.57v1.37l-46.51-0.09
					c-1.36,0-1.97-0.6-1.97-1.93v-24.31l-5.05,1.59v22.87C283.31,208.22,285.78,210.64,289.77,210.64"/>
				<polygon style="clip-path:url(#SVGID_00000178884035827522145730000002571713539194673316_);fill:#5F636A;" points="
					361.75,181.45 361.75,210.64 366.78,210.64 366.78,179.86 				"/>
				<path style="clip-path:url(#SVGID_00000178884035827522145730000002571713539194673316_);fill:#5F636A;" d="M29.65,229.87
					l-6.12,0l-8.32,21.6h-1.98v3.67h9.66v-3.67h-2.96l1.48-4.06l9.76,0l1.55,4.06h-2.96v3.67l10.13,0v-3.67H37.9L29.65,229.87z
					 M22.73,243.74l3.6-9.7l3.53,9.7L22.73,243.74z"/>
				<polygon style="clip-path:url(#SVGID_00000178884035827522145730000002571713539194673316_);fill:#5F636A;" points="
					56.46,233.54 59.88,233.54 59.88,240.42 49.72,240.42 49.72,233.54 53.14,233.54 53.14,229.87 41.79,229.87 41.79,233.54 
					44.75,233.54 44.75,251.47 41.79,251.47 41.79,255.14 53.14,255.14 53.14,251.47 49.72,251.47 49.72,244.09 59.88,244.09 
					59.88,251.47 56.46,251.47 56.46,255.14 67.81,255.14 67.81,251.47 64.85,251.47 64.85,233.54 67.81,233.54 67.81,229.87 
					56.46,229.87 				"/>
				<polygon style="clip-path:url(#SVGID_00000178884035827522145730000002571713539194673316_);fill:#5F636A;" points="
					85.37,251.47 77.62,251.47 77.62,233.54 81.4,233.54 81.4,229.87 69.69,229.87 69.69,233.54 72.65,233.54 72.65,251.47 
					69.69,251.47 69.69,255.14 89.69,255.14 89.69,246.26 85.37,246.26 				"/>
				<polygon style="clip-path:url(#SVGID_00000178884035827522145730000002571713539194673316_);fill:#5F636A;" points="
					91.53,233.54 94.48,233.54 94.48,251.47 91.53,251.47 91.53,255.14 102.42,255.14 102.42,251.47 99.46,251.47 99.46,233.54 
					102.42,233.54 102.42,229.87 91.53,229.87 				"/>
				<path style="clip-path:url(#SVGID_00000178884035827522145730000002571713539194673316_);fill:#5F636A;" d="M120.83,255.14
					h10.13v-3.67h-1.98l-8.25-21.6h-6.13l-8.32,21.6h-1.98v3.67h9.66l0-3.67h-2.96l1.48-4.06l9.77,0l1.55,4.06h-2.95V255.14z
					 M113.8,243.74l3.61-9.7l3.53,9.7H113.8z"/>
				<path style="clip-path:url(#SVGID_00000178884035827522145730000002571713539194673316_);fill:#5F636A;" d="M163.77,229.87
					H153.5v3.67h3.24v11.05v1.99c0,0.84-0.15,1.65-0.44,2.45c-0.29,0.8-0.79,1.49-1.51,2.08c-0.72,0.59-1.8,0.89-3.24,0.89
					c-1.34,0-2.37-0.29-3.08-0.85c-0.71-0.57-1.21-1.25-1.51-2.05c-0.3-0.8-0.47-1.61-0.51-2.45c-0.04-0.84-0.06-1.53-0.06-2.06
					v-11.05h3.24v-3.67H138.9v3.67l2.52,0v12.82c0,0.52,0.05,1.11,0.15,1.78c0.09,0.67,0.27,1.35,0.54,2.03
					c0.27,0.69,0.63,1.35,1.08,2.01c0.45,0.66,1.06,1.25,1.82,1.78c0.76,0.53,1.67,0.95,2.73,1.26c1.07,0.31,2.34,0.46,3.81,0.46
					c1.42,0,2.72-0.25,3.91-0.73c1.19-0.49,2.21-1.15,3.06-1.99c0.85-0.83,1.52-1.83,2-2.96c0.48-1.13,0.72-2.35,0.72-3.63v-12.82
					h2.52V229.87z"/>
				<polygon style="clip-path:url(#SVGID_00000178884035827522145730000002571713539194673316_);fill:#5F636A;" points="
					184.85,248.65 184.78,248.65 175.7,229.87 165.68,229.87 165.68,233.54 168.63,233.54 168.63,251.47 165.68,251.47 
					165.68,255.14 176.09,255.14 176.09,251.47 173.14,251.47 173.14,235.63 173.21,235.63 182.8,255.14 189.35,255.14 
					189.35,233.54 192.31,233.54 192.31,229.87 181.9,229.87 181.9,233.54 184.85,233.54 				"/>
				<polygon style="clip-path:url(#SVGID_00000178884035827522145730000002571713539194673316_);fill:#5F636A;" points="
					205.04,233.54 205.04,229.87 194.15,229.87 194.15,233.54 197.11,233.54 197.11,251.47 194.15,251.47 194.15,255.14 
					205.04,255.14 205.04,251.47 202.08,251.47 202.08,233.54 				"/>
				<polygon style="clip-path:url(#SVGID_00000178884035827522145730000002571713539194673316_);fill:#5F636A;" points="
					217.68,229.87 206.9,229.87 206.9,233.54 209.07,233.54 217.29,255.14 223.08,255.14 231.41,233.54 233.57,233.54 
					233.57,229.87 223.12,229.87 223.12,233.54 226.36,233.54 220.42,249.92 214.44,233.54 217.68,233.54 				"/>
				<polygon style="clip-path:url(#SVGID_00000178884035827522145730000002571713539194673316_);fill:#5F636A;" points="
					256.79,237.44 256.79,229.87 235.39,229.87 235.39,233.54 238.34,233.54 238.34,251.47 235.39,251.47 235.39,255.14 
					256.79,255.14 256.79,246.87 252.65,246.87 252.65,251.47 243.32,251.47 243.32,243.9 246.88,243.9 246.88,247.3 250.66,247.3 
					250.66,236.98 246.88,236.98 246.88,240.42 243.32,240.42 243.32,233.54 252.65,233.54 252.65,237.44 				"/>
				<path style="clip-path:url(#SVGID_00000178884035827522145730000002571713539194673316_);fill:#5F636A;" d="M279.68,248.42
					c-0.19-0.67-0.4-1.32-0.63-1.95c-0.23-0.63-0.52-1.19-0.88-1.7c-0.36-0.5-0.8-0.91-1.32-1.23c-0.52-0.32-1.17-0.51-1.96-0.56
					v-0.08c0.76-0.08,1.48-0.26,2.14-0.56c0.66-0.3,1.23-0.7,1.72-1.2c0.47-0.5,0.86-1.1,1.13-1.8c0.28-0.69,0.41-1.47,0.41-2.32
					c0-1.62-0.22-2.9-0.66-3.84c-0.45-0.94-1.05-1.66-1.8-2.15c-0.76-0.49-1.62-0.81-2.6-0.95c-0.97-0.14-1.98-0.21-3.04-0.21H258.7
					v3.67l3.24,0v17.93l-3.24,0v3.67h11.17v-3.67h-2.96v-6.8h3.71c0.6,0,1.11,0.08,1.53,0.26c0.42,0.16,0.78,0.4,1.06,0.71
					c0.29,0.31,0.53,0.68,0.71,1.1c0.18,0.43,0.34,0.88,0.49,1.37l1.95,7.03h6.52v-3.67h-2.34L279.68,248.42z M273.89,240.29
					c-0.47,0.27-0.98,0.46-1.53,0.56c-0.56,0.1-1.1,0.15-1.63,0.15h-3.82v-7.45h4.54c0.53,0,1.03,0.04,1.52,0.13
					c0.48,0.09,0.91,0.27,1.28,0.54c0.37,0.27,0.67,0.64,0.9,1.12c0.22,0.48,0.34,1.09,0.34,1.84c0,0.79-0.15,1.45-0.45,1.95
					C274.74,239.63,274.36,240.02,273.89,240.29"/>
				<path style="clip-path:url(#SVGID_00000178884035827522145730000002571713539194673316_);fill:#5F636A;" d="M299.44,241.64
					c-0.99-0.55-2.06-0.97-3.21-1.25c-1.16-0.29-2.23-0.58-3.22-0.89c-0.99-0.31-1.81-0.71-2.48-1.2c-0.66-0.49-0.99-1.22-0.99-2.2
					c0-1.18,0.37-2.03,1.11-2.53c0.74-0.5,1.62-0.76,2.63-0.76c1.64,0,2.79,0.4,3.48,1.2c0.69,0.8,1.07,2.05,1.17,3.74h4.32v-7.88
					h-4.14v2.05h-0.08c-0.72-1.06-1.55-1.75-2.5-2.08c-0.95-0.34-2-0.51-3.16-0.51c-1.08,0-2.09,0.16-3,0.47
					c-0.93,0.31-1.73,0.76-2.42,1.37c-0.69,0.61-1.22,1.37-1.63,2.28c-0.39,0.91-0.59,1.99-0.59,3.22c0,1.73,0.32,3.06,0.96,3.98
					c0.65,0.93,1.46,1.63,2.43,2.11c0.97,0.48,2.03,0.83,3.17,1.06c1.14,0.23,2.2,0.52,3.17,0.85c0.97,0.33,1.78,0.81,2.43,1.43
					c0.65,0.62,0.97,1.57,0.97,2.86c0,0.52-0.12,0.98-0.36,1.39c-0.24,0.41-0.56,0.76-0.94,1.02c-0.39,0.27-0.81,0.48-1.26,0.62
					c-0.46,0.14-0.9,0.22-1.33,0.22c-1.8,0-3.1-0.43-3.88-1.28c-0.78-0.85-1.17-2.28-1.17-4.29h-4.33v8.5h4.14v-2.09h0.07
					c0.38,0.59,0.82,1.06,1.31,1.39c0.48,0.33,0.99,0.6,1.53,0.79c0.54,0.19,1.11,0.32,1.7,0.36c0.59,0.05,1.2,0.08,1.83,0.08
					c1.08,0,2.09-0.18,3.01-0.53c0.93-0.35,1.74-0.85,2.44-1.5c0.7-0.66,1.24-1.45,1.64-2.4c0.4-0.94,0.6-2,0.6-3.19
					c0-1.72-0.33-3.09-0.99-4.1C301.25,242.97,300.42,242.19,299.44,241.64"/>
				<polygon style="clip-path:url(#SVGID_00000178884035827522145730000002571713539194673316_);fill:#5F636A;" points="
					304.81,233.54 307.77,233.54 307.77,251.47 304.81,251.47 304.81,255.14 315.69,255.14 315.69,251.47 312.74,251.47 
					312.74,233.54 315.69,233.54 315.69,229.87 304.81,229.87 				"/>
				<polygon style="clip-path:url(#SVGID_00000178884035827522145730000002571713539194673316_);fill:#5F636A;" points="
					317.78,238.6 321.93,238.6 321.93,233.54 326.04,233.54 326.04,251.47 322.61,251.47 322.61,255.14 334.43,255.14 
					334.43,251.47 331.01,251.47 331.01,233.54 335.12,233.54 335.12,238.6 339.26,238.6 339.26,229.87 317.78,229.87 				"/>
				<polygon style="clip-path:url(#SVGID_00000178884035827522145730000002571713539194673316_);fill:#5F636A;" points="
					355.69,233.54 358.75,233.54 353.85,241.5 349,233.54 352.05,233.54 352.05,229.87 341.17,229.87 341.17,233.54 343.15,233.54 
					351.11,246.1 351.11,251.47 347.69,251.47 347.69,255.14 359.51,255.14 359.51,251.47 356.09,251.47 356.09,246.1 
					364.09,233.54 366.07,233.54 366.07,229.87 355.69,229.87 				"/>
				<g style="opacity:0.4;clip-path:url(#SVGID_00000178884035827522145730000002571713539194673316_);">
					<g>
						<defs>
							<rect id="SVGID_00000016070946646353420870000018390192802670990756_" x="137.14" y="93.94" width="46.73" height="46.45"/>
						</defs>
						<clipPath id="SVGID_00000085940888273229977810000006532573089086136196_">
							<use xlink:href="#SVGID_00000016070946646353420870000018390192802670990756_"  style="overflow:visible;"/>
						</clipPath>
						<g style="clip-path:url(#SVGID_00000085940888273229977810000006532573089086136196_);">
							<defs>
								<path id="SVGID_00000054963688540536659780000000555407097575472307_" d="M145.04,111.48c0.98,7.72,7.57,13.73,15.58,13.73
									c7.53,0,13.81-5.28,15.35-12.34c-6.68,2.19-12.39-1.1-18.99-2.64c-1.36-0.31-2.68-0.44-3.93-0.44
									C149.75,109.8,146.91,110.69,145.04,111.48"/>
							</defs>
							<clipPath id="SVGID_00000148647680893694762360000015763749040793141125_">
								<use xlink:href="#SVGID_00000054963688540536659780000000555407097575472307_"  style="overflow:visible;"/>
							</clipPath>
							
								<radialGradient id="SVGID_00000151538015406899490570000017619213108582890152_" cx="-187" cy="827" r="1" gradientTransform="matrix(-49.5268 -40.6186 40.6185 -49.5269 -42669.543 33490.4375)" gradientUnits="userSpaceOnUse">
								<stop  offset="0" style="stop-color:#FFFFFF"/>
								<stop  offset="1" style="stop-color:#5F636A"/>
							</radialGradient>
							
								<polygon style="clip-path:url(#SVGID_00000148647680893694762360000015763749040793141125_);fill:url(#SVGID_00000151538015406899490570000017619213108582890152_);" points="
								183.53,116 157.48,94.63 137.48,119.02 163.53,140.38 							"/>
						</g>
					</g>
				</g>
				<g style="clip-path:url(#SVGID_00000178884035827522145730000002571713539194673316_);">
					<g>
						<defs>
							<rect id="SVGID_00000123416105392571874650000008043730188902969772_" x="145.08" y="93.77" width="31.45" height="31.45"/>
						</defs>
						<clipPath id="SVGID_00000097500922739540431870000017608910394997557687_">
							<use xlink:href="#SVGID_00000123416105392571874650000008043730188902969772_"  style="overflow:visible;"/>
						</clipPath>
						<g style="clip-path:url(#SVGID_00000097500922739540431870000017608910394997557687_);">
							<defs>
								<path id="SVGID_00000181060041125069237480000015635724854813543084_" d="M145.08,109.5c0,8.67,7.05,15.72,15.72,15.72
									c8.69,0,15.73-7.05,15.73-15.72c0-8.68-7.04-15.72-15.73-15.72C152.14,93.77,145.08,100.82,145.08,109.5"/>
							</defs>
							<clipPath id="SVGID_00000073705510909191861770000008855363354165489341_">
								<use xlink:href="#SVGID_00000181060041125069237480000015635724854813543084_"  style="overflow:visible;"/>
							</clipPath>
							
								<radialGradient id="SVGID_00000100371386866791712960000017804914975610848142_" cx="-186.9995" cy="826.9995" r="1" gradientTransform="matrix(24.1548 0 0 24.1549 4677.7505 -19866.5547)" gradientUnits="userSpaceOnUse">
								<stop  offset="0" style="stop-color:#FFFFFF"/>
								<stop  offset="0.0504" style="stop-color:#FFFFFF"/>
								<stop  offset="0.2034" style="stop-color:#D3D1D3"/>
								<stop  offset="0.3874" style="stop-color:#A8A5A9"/>
								<stop  offset="0.5645" style="stop-color:#88868B"/>
								<stop  offset="0.7301" style="stop-color:#717278"/>
								<stop  offset="0.88" style="stop-color:#63676D"/>
								<stop  offset="1" style="stop-color:#5F636A"/>
							</radialGradient>
							
								<rect x="145.08" y="93.77" style="clip-path:url(#SVGID_00000073705510909191861770000008855363354165489341_);fill:url(#SVGID_00000100371386866791712960000017804914975610848142_);" width="31.45" height="31.44"/>
						</g>
					</g>
				</g>
			</g>
			<g style="clip-path:url(#SVGID_00000008853638135682924850000007246961390004935327_);">
				<defs>
					<path id="SVGID_00000103242006428651143150000013380151440544380045_" d="M145.08,109.5c0,8.67,7.05,15.72,15.72,15.72
						c8.69,0,15.73-7.04,15.73-15.72c0-8.68-7.04-15.72-15.73-15.72C152.13,93.77,145.08,100.82,145.08,109.5"/>
				</defs>
				<clipPath id="SVGID_00000082334921432796502330000015248882627847580328_">
					<use xlink:href="#SVGID_00000103242006428651143150000013380151440544380045_"  style="overflow:visible;"/>
				</clipPath>
				<g style="opacity:0.25;clip-path:url(#SVGID_00000082334921432796502330000015248882627847580328_);">
					<g>
						<defs>
							<rect id="SVGID_00000095334533552277249660000011808930937914964363_" x="144.4" y="93.8" width="34.29" height="31.9"/>
						</defs>
						<clipPath id="SVGID_00000015348065739521110070000017134134431713719680_">
							<use xlink:href="#SVGID_00000095334533552277249660000011808930937914964363_"  style="overflow:visible;"/>
						</clipPath>
						<g style="clip-path:url(#SVGID_00000015348065739521110070000017134134431713719680_);">
							<defs>
								<path id="SVGID_00000178883689720654899660000018165216143692356029_" d="M163.93,95.75c0,0,1.26,1.45,4.45,2.24
									c3.19,0.78,3.29-0.57,2.5-1.58c-0.79-1.01-1.83-1.27-1.83-1.27s1.11,1.58-0.47,1.59c-1.31,0.01-3.8-0.76-4.25-1.41
									c-0.45-0.65-0.09-1.09,0.76-1.04c0,0-0.13-0.02-0.31-0.02C164.14,94.27,162.85,94.42,163.93,95.75"/>
							</defs>
							<clipPath id="SVGID_00000170266436402333520410000011575040168457282231_">
								<use xlink:href="#SVGID_00000178883689720654899660000018165216143692356029_"  style="overflow:visible;"/>
							</clipPath>
							
								<radialGradient id="SVGID_00000086668586237683971670000018036838076374000806_" cx="-187" cy="826.9999" r="1" gradientTransform="matrix(3.0841 0 0 3.0841 744.138 -2454.3232)" gradientUnits="userSpaceOnUse">
								<stop  offset="0" style="stop-color:#FFFFFF"/>
								<stop  offset="1" style="stop-color:#5F636A"/>
							</radialGradient>
							
								<rect x="162.85" y="94.23" style="clip-path:url(#SVGID_00000170266436402333520410000011575040168457282231_);fill:url(#SVGID_00000086668586237683971670000018036838076374000806_);" width="8.82" height="4.55"/>
						</g>
						<g style="clip-path:url(#SVGID_00000015348065739521110070000017134134431713719680_);">
							<defs>
								<path id="SVGID_00000081612193780424841880000001954832896836978333_" d="M158.8,96.6c-0.29,2.56,1.65,4.04,4.43,6.05
									c2.8,2.02,8.01,3.33,10.7,3.42c2.68,0.08,3.41-2.27,2.69-3.93c-0.72-1.66-2.47-2.91-2.47-2.91
									c1.09,2.89-1.92,2.71-3.68,2.41c-1.75-0.29-8.26-1.91-9.32-4.75c-0.86-2.3,1.68-2.63,2.68-2.66
									C162.53,94.24,159.06,94.35,158.8,96.6 M163.83,94.23c0.07,0,0.13,0,0.19,0c0.08,0,0.15,0,0.2,0c0,0-0.05,0-0.14,0
									C164.01,94.22,163.92,94.23,163.83,94.23"/>
							</defs>
							<clipPath id="SVGID_00000181073707372435224570000006907680789091187358_">
								<use xlink:href="#SVGID_00000081612193780424841880000001954832896836978333_"  style="overflow:visible;"/>
							</clipPath>
							
								<radialGradient id="SVGID_00000133507377250152042550000000247053634762139553_" cx="-187" cy="827" r="1" gradientTransform="matrix(7.6509 0 0 7.6509 1598.5432 -6227.1577)" gradientUnits="userSpaceOnUse">
								<stop  offset="0" style="stop-color:#FFFFFF"/>
								<stop  offset="1" style="stop-color:#5F636A"/>
							</radialGradient>
							
								<rect x="158.51" y="94.22" style="clip-path:url(#SVGID_00000181073707372435224570000006907680789091187358_);fill:url(#SVGID_00000133507377250152042550000000247053634762139553_);" width="18.83" height="11.93"/>
						</g>
						<g style="clip-path:url(#SVGID_00000015348065739521110070000017134134431713719680_);">
							<defs>
								<path id="SVGID_00000170987195612647496060000008883393692239891854_" d="M151.37,99.26c-1.58,4.06,1.1,8.68,6.49,12.38
									c5.39,3.7,11.26,5.35,14.54,5.37c3.29,0.03,4.23-2.28,4.23-2.28s1.35-0.44,1.7-1.46c0.04-0.12,0.06-0.28,0.07-0.46v-0.19
									c-0.04-1.56-0.85-4.68-0.85-4.68c-1.33,3.34-6.88,1.86-9.78,1.16c-2.9-0.7-6.65-2.1-10.71-5.25
									c-4.07-3.15-3.16-5.31-3.16-5.31c0.98-4.34,8.15-4.59,9.35-4.6C157.44,93.95,152.92,95.24,151.37,99.26 M163.24,93.94
									C163.25,93.94,163.25,93.94,163.24,93.94h0.02C163.25,93.94,163.25,93.94,163.24,93.94"/>
							</defs>
							<clipPath id="SVGID_00000178897397791213714440000005147961118755776181_">
								<use xlink:href="#SVGID_00000170987195612647496060000008883393692239891854_"  style="overflow:visible;"/>
							</clipPath>
							
								<radialGradient id="SVGID_00000084489160227800529760000005403110499703138982_" cx="-187" cy="827.0012" r="0.9995" gradientTransform="matrix(12.6857 0 0 12.6858 2536.8926 -10385.6445)" gradientUnits="userSpaceOnUse">
								<stop  offset="0" style="stop-color:#FFFFFF"/>
								<stop  offset="1" style="stop-color:#5F636A"/>
							</radialGradient>
							
								<rect x="149.79" y="93.94" style="clip-path:url(#SVGID_00000178897397791213714440000005147961118755776181_);fill:url(#SVGID_00000084489160227800529760000005403110499703138982_);" width="28.61" height="23.1"/>
						</g>
						<g style="clip-path:url(#SVGID_00000015348065739521110070000017134134431713719680_);">
							<defs>
								<path id="SVGID_00000062181983372480662350000015734048186494759079_" d="M146.29,108.47c0.36,7.05,12.51,13.94,18.53,14.3
									c0,0,4.64,0.97,9.25-1.6c4.62-2.57,1-3.07,1-3.07s-1.36,2.24-6.6,1.88c-5.25-0.36-11.63-3.29-14.04-4.89
									c-2.4-1.6-6.08-4.45-6.89-9.06c-0.8-4.62,3.1-8.7,5.2-10.25C152.75,95.78,144.91,99.94,146.29,108.47"/>
							</defs>
							<clipPath id="SVGID_00000085211420600934635350000004573917780195191429_">
								<use xlink:href="#SVGID_00000062181983372480662350000015734048186494759079_"  style="overflow:visible;"/>
							</clipPath>
							
								<radialGradient id="SVGID_00000065035963843648571490000010781380376556872863_" cx="-187" cy="827" r="1" gradientTransform="matrix(14.3863 0 0 14.3863 2851.5146 -11788.1475)" gradientUnits="userSpaceOnUse">
								<stop  offset="0" style="stop-color:#FFFFFF"/>
								<stop  offset="1" style="stop-color:#5F636A"/>
							</radialGradient>
							
								<rect x="144.91" y="95.78" style="clip-path:url(#SVGID_00000085211420600934635350000004573917780195191429_);fill:url(#SVGID_00000065035963843648571490000010781380376556872863_);" width="33.79" height="27.96"/>
						</g>
						<g style="clip-path:url(#SVGID_00000015348065739521110070000017134134431713719680_);">
							<defs>
								<path id="SVGID_00000084489885374550076970000007604796501485973932_" d="M151.75,121.19c5.91,4.5,14.53,3.95,14.53,3.95
									l0.39,0.33l3.2-1.13c0,0-4.42,0.8-9.64-0.25c-5.23-1.05-9.67-4.42-9.67-4.42c-4.57-3.99-5.5-8.49-5.69-10.55
									C145.14,113.44,146.93,117.52,151.75,121.19 M144.84,108.23v0.08c0,0.2,0.01,0.47,0.04,0.82c-0.02-0.38-0.03-0.76-0.03-1.14
									C144.85,107.99,144.84,108.07,144.84,108.23"/>
							</defs>
							<clipPath id="SVGID_00000031185752225233200020000016280395668984122517_">
								<use xlink:href="#SVGID_00000084489885374550076970000007604796501485973932_"  style="overflow:visible;"/>
							</clipPath>
							
								<radialGradient id="SVGID_00000131363076261715275060000006044533636369612209_" cx="-186.9998" cy="827" r="0.9999" gradientTransform="matrix(10.7997 0 0 10.7997 2176.8931 -8814.6074)" gradientUnits="userSpaceOnUse">
								<stop  offset="0" style="stop-color:#FFFFFF"/>
								<stop  offset="1" style="stop-color:#5F636A"/>
							</radialGradient>
							
								<rect x="144.84" y="107.99" style="clip-path:url(#SVGID_00000031185752225233200020000016280395668984122517_);fill:url(#SVGID_00000131363076261715275060000006044533636369612209_);" width="25.04" height="17.71"/>
						</g>
					</g>
				</g>
				<g style="clip-path:url(#SVGID_00000082334921432796502330000015248882627847580328_);">
					<g>
						<defs>
							<rect id="SVGID_00000134936852146435422340000009045826822816145820_" x="145.08" y="93.77" width="31.45" height="31.45"/>
						</defs>
						<clipPath id="SVGID_00000046333360721254953260000003530852649501311156_">
							<use xlink:href="#SVGID_00000134936852146435422340000009045826822816145820_"  style="overflow:visible;"/>
						</clipPath>
					</g>
				</g>
			</g>
			<g style="clip-path:url(#SVGID_00000008853638135682924850000007246961390004935327_);">
				<defs>
					<rect id="SVGID_00000146487541899918351630000015142855988220340415_" x="13.22" y="18.47" width="353.57" height="273.07"/>
				</defs>
				<clipPath id="SVGID_00000110433278738148342290000001785796678308829588_">
					<use xlink:href="#SVGID_00000146487541899918351630000015142855988220340415_"  style="overflow:visible;"/>
				</clipPath>
				<g style="clip-path:url(#SVGID_00000110433278738148342290000001785796678308829588_);">
					<g>
						<defs>
							<rect id="SVGID_00000093138784817390739360000010884012648750267535_" x="145.08" y="93.77" width="31.45" height="31.45"/>
						</defs>
						<clipPath id="SVGID_00000035518867870094740650000003748505158347767949_">
							<use xlink:href="#SVGID_00000093138784817390739360000010884012648750267535_"  style="overflow:visible;"/>
						</clipPath>
					</g>
				</g>
			</g>
		</g>
	</g>
</g>
</svg>
